<svg xmlns="http://www.w3.org/2000/svg" width="50" height="50" viewBox="0 0 50 50" fill="none"><path d="M49.898 24.9905C49.898 38.8038 38.7288 50 24.949 50C16.158 50 8.41601 45.4416 3.97779 38.5421C3.19932 37.3382 2.52528 36.0582 1.96041 34.7307C0.697774 31.7282 0 28.445 0 24.9905C0 24.1863 0.0427208 23.3917 0.113922 22.6066H26.2828C28.4189 22.6066 30.1467 20.8746 30.1467 18.7334C30.1467 16.6397 28.4901 14.9267 26.4157 14.8649C26.3683 14.8601 26.3303 14.8601 26.2828 14.8601C26.2354 14.8601 26.1974 14.8601 26.1499 14.8649H18.4317V18.3099H14.6295V11.0487H26.0882C26.449 11.0487 26.805 11.0725 27.1467 11.1201C30.8872 11.6388 33.759 14.8458 33.759 18.7238C33.759 20.9697 32.8001 22.9825 31.2669 24.3909C30.1467 25.4235 28.7274 26.123 27.1467 26.3418C26.805 26.3894 26.449 26.4132 26.0882 26.4132H18.4269V34.7307H26.9426C27.0091 34.7354 27.0803 34.7354 27.142 34.7354C29.278 34.7354 31.0058 33.0034 31.0058 30.8622C31.0058 30.629 31.0818 29.9772 31.0201 29.311H34.6371C34.7416 29.8106 34.7938 30.3293 34.7938 30.8622C34.7938 35.1018 31.3666 38.5421 27.1325 38.5421H14.6248V26.418H3.85912C4.05848 29.4014 4.87018 32.2183 6.17554 34.7354C6.8828 36.1011 7.72773 37.3763 8.70556 38.5468C12.5789 43.2099 18.4174 46.1791 24.9395 46.1791C36.6118 46.1791 46.0626 36.6959 46.0626 25.0048C46.0626 13.3042 36.607 3.83043 24.9395 3.83043C18.5978 3.83043 12.9064 6.63305 9.04258 11.0678C8.01728 12.2288 7.12964 13.5088 6.3749 14.8791C6.34167 14.9458 6.3037 15.0124 6.27047 15.079C6.52205 15.531 6.6692 16.0544 6.6692 16.6064C6.6692 18.3289 5.27365 19.7278 3.55058 19.7278C2.46357 19.7278 1.50472 19.1664 0.949352 18.3241C0.939859 18.3051 0.925618 18.2908 0.916125 18.2718C0.612332 17.7912 0.436702 17.2202 0.436702 16.6112C0.436702 15.1646 1.41453 13.9513 2.74363 13.5992C3.18982 12.7284 3.68823 11.8862 4.23411 11.0725C8.70556 4.3919 16.3099 1.3629e-05 24.9395 1.3629e-05C38.7336 -0.0142612 49.898 11.1867 49.898 24.9905Z" fill="url(#paint0_linear)"></path><defs><linearGradient id="paint0_linear" x1="39.0334" y1="6.52317" x2="1.81174" y2="47.1898" gradientUnits="userSpaceOnUse"><stop stop-color="#26B77B"></stop><stop offset="1" stop-color="#52DDB2"></stop></linearGradient></defs></svg>